# xmcd CD database file generated by OrangeCD 5.0
#
# Track frame offsets:
#	200
#	21347
#	45770
#
# Disc length: 891 seconds
#
# Revision: 2
# Processed by: cddbd v1.4PL0 Copyright (c) Steve Scherf et al.
# Submitted via: OrangeCD 5.0
#
DISCID=17037903
DTITLE=Buddy Guy with Jeff Beck - Mustang Sally
DYEAR=1991
DGENRE=blues
TTITLE0=Mustang Sally (Single Version)
TTITLE1=Trouble Don't Last
TTITLE2=Mustang Sally (Album Version)
EXTD=
EXTT0=
EXTT1=
EXTT2=
PLAYORDER=
